<?xml version="1.0" encoding="UTF-8" standalone="no"?>
<!-- Created with Inkscape (http://www.inkscape.org/) -->

<svg
   xmlns:dc="http://purl.org/dc/elements/1.1/"
   xmlns:cc="http://creativecommons.org/ns#"
   xmlns:rdf="http://www.w3.org/1999/02/22-rdf-syntax-ns#"
   xmlns:svg="http://www.w3.org/2000/svg"
   xmlns="http://www.w3.org/2000/svg"
   xmlns:sodipodi="http://sodipodi.sourceforge.net/DTD/sodipodi-0.dtd"
   xmlns:inkscape="http://www.inkscape.org/namespaces/inkscape"
   width="3000"
   height="2000"
   viewBox="0 0 793.74998 529.16666"
   version="1.1"
   id="svg8"
   inkscape:version="0.92.3 (2405546, 2018-03-11)"
   sodipodi:docname="course.svg">
  <defs
     id="defs2" />
  <sodipodi:namedview
     id="base"
     pagecolor="#ffffff"
     bordercolor="#666666"
     borderopacity="1.0"
     inkscape:pageopacity="0.0"
     inkscape:pageshadow="2"
     inkscape:zoom="0.22162688"
     inkscape:cx="3102.3138"
     inkscape:cy="612.35319"
     inkscape:document-units="mm"
     inkscape:current-layer="layer1"
     showgrid="false"
     inkscape:window-width="1920"
     inkscape:window-height="1146"
     inkscape:window-x="0"
     inkscape:window-y="28"
     inkscape:window-maximized="1"
     units="px" />
  <metadata
     id="metadata5">
    <rdf:RDF>
      <cc:Work
         rdf:about="">
        <dc:format>image/svg+xml</dc:format>
        <dc:type
           rdf:resource="http://purl.org/dc/dcmitype/StillImage" />
        <dc:title></dc:title>
      </cc:Work>
    </rdf:RDF>
  </metadata>
  <g
     inkscape:label="レイヤー 1"
     inkscape:groupmode="layer"
     id="layer1"
     transform="translate(0,232.16664)">
    <path
       style="fill:none;stroke:#000000;stroke-width:25.31399727;stroke-linecap:butt;stroke-linejoin:miter;stroke-miterlimit:4;stroke-dasharray:none;stroke-opacity:1"
       d="M 703.57957,-88.928787 V 109.53159 c 0.37444,42.83482 0.41001,117.84868 -67.47806,116.8222 -79.81269,-1.2068 -206.89733,-0.35648 -275.4042,-5.12916 -37.09591,-2.58437 -199.9934,-49.17929 5.69572,-134.789286 204.70778,-85.2015355 193.82272,-97.010609 199.51058,-113.849595 3.58889,-10.62498 -3.76537,-32.61366 -6.34671,-37.589604 -8.36931,-16.13322 -45.98043,-22.201371 -55.55357,-18.890795 -38.55806,13.334095 -84.49657,37.095414 -84.49657,37.095414 C 364.91115,-11.283879 309.62963,25.382302 247.06602,48.595321 206.1051,63.793086 158.37653,102.44629 117.42592,76.128972 61.830279,40.399904 73.261463,47.352107 78.759243,-24.302286 83.038259,-80.072267 135.5682,-115.20061 234.82193,-161.09587 c 37.15882,-17.18236 468.75764,-35.11099 468.75764,72.167083 z"
       id="path815"
       inkscape:connector-curvature="0"
       sodipodi:nodetypes="scsssssssassss" />
  </g>
</svg>
